<?xml version="1.0" ?><svg id="Layer_1" style="enable-background:new 0 0 128 128;" version="1.1" viewBox="0 0 128 128" xml:space="preserve" xmlns="http://www.w3.org/2000/svg" xmlns:xlink="http://www.w3.org/1999/xlink"><style type="text/css">
	.st0{opacity:0.2;fill-rule:evenodd;clip-rule:evenodd;}
	.st1{fill-rule:evenodd;clip-rule:evenodd;fill:#9AA49C;}
	.st2{fill-rule:evenodd;clip-rule:evenodd;fill:#CCCBCB;}
	.st3{fill-rule:evenodd;clip-rule:evenodd;fill:url(#SVGID_1_);}
	.st4{fill-rule:evenodd;clip-rule:evenodd;fill:#FFFFFF;}
</style><path class="st0" d="M34,79.7l93,4.4c1.2,0.1,1.4,1,0.4,2.1l-27,32.8c-0.9,1.1-2.6,2.1-3.8,1.9L5.5,109.7c-1.1-0.1-1.4-1.1-0.4-2.1  l25.2-25.9C31.2,80.6,32.8,79.7,34,79.7z"/><polygon class="st1" points="1.6,10 3.6,7.9 4,7.6 4.5,7.4 4.9,7.1 5.4,7 5.9,6.8 6.4,6.8 7,6.8 7.5,6.8 97.6,18.1 98.1,18.2   98.7,18.4 99.2,18.6 99.7,18.8 100.2,19.1 100.6,19.5 101.1,19.9 101.4,20.3 101.8,20.7 102.1,21.2 102.4,21.7 102.6,22.2   102.8,22.7 102.9,23.3 103,23.8 103.1,24.4 103.1,114.3 103,114.8 102.9,115.4 102.8,115.9 102.6,116.4 102.4,116.8 102.1,117.3   101.8,117.7 99.8,119.7 100.1,119.3 100.4,118.9 100.6,118.4 100.8,117.9 100.9,117.4 101,116.9 101,116.3 101,26.4 101,25.9   100.9,25.3 100.8,24.7 100.6,24.2 100.4,23.7 100.1,23.2 99.8,22.7 99.4,22.3 99,21.9 98.6,21.5 98.2,21.2 97.7,20.9 97.2,20.6   96.6,20.4 96.1,20.3 95.5,20.2 5.5,8.8 4.9,8.8 4.4,8.8 3.9,8.9 3.4,9 2.9,9.2 2.4,9.4 2,9.7 "/><polygon class="st2" points="1.6,10 2.6,9 3,8.7 3.4,8.4 3.9,8.2 4.4,8 4.9,7.9 5.4,7.8 5.9,7.8 6.5,7.8 96.6,19.2 97.1,19.3   97.7,19.4 98.2,19.6 98.7,19.9 99.2,20.2 99.6,20.5 100,20.9 100.4,21.3 100.8,21.7 101.1,22.2 101.4,22.7 101.6,23.2 101.8,23.7   101.9,24.3 102,24.8 102,25.4 102,115.3 102,115.9 101.9,116.4 101.8,116.9 101.6,117.4 101.4,117.9 101.1,118.3 100.8,118.7   99.8,119.7 100.1,119.3 100.4,118.9 100.6,118.4 100.8,117.9 100.9,117.4 101,116.9 101,116.3 101,26.4 101,25.9 100.9,25.3   100.8,24.7 100.6,24.2 100.4,23.7 100.1,23.2 99.8,22.7 99.4,22.3 99,21.9 98.6,21.5 98.2,21.2 97.7,20.9 97.2,20.6 96.6,20.4   96.1,20.3 95.5,20.2 5.5,8.8 4.9,8.8 4.4,8.8 3.9,8.9 3.4,9 2.9,9.2 2.4,9.4 2,9.7 "/><linearGradient gradientUnits="userSpaceOnUse" id="SVGID_1_" x1="57.8531" x2="43.1737" y1="12.7868" y2="117.2361"><stop offset="0" style="stop-color:#777879"/><stop offset="0.3" style="stop-color:#696867"/><stop offset="0.68" style="stop-color:#303030"/><stop offset="1" style="stop-color:#000000"/></linearGradient><path class="st3" d="M5.5,8.8l90.1,11.3c3,0.4,5.5,3.2,5.5,6.3v89.9c0,3.1-2.5,5.3-5.5,4.9L5.5,109.9c-3-0.4-5.5-3.2-5.5-6.3V13.7  C0,10.7,2.5,8.5,5.5,8.8z"/><path class="st4" d="M50.5,30.8c-19.4-2.4-35.1,11.3-35.1,30.7c0,15.5,10.1,29.9,24,36.3c1.8,0.5,2.4-0.5,2.4-1.4c0-0.8,0-3,0-6  c-9.8,0.9-11.8-6.2-11.8-6.2c-1.6-4.3-3.9-5.6-3.9-5.6c-3.2-2.6,0.2-2.1,0.2-2.1c3.5,0.7,5.4,4.3,5.4,4.3c3.1,5.8,8.2,4.8,10.2,4.2  c0.3-2.2,1.2-3.7,2.2-4.4c-7.8-1.9-16-5.9-16-19.4c0-3.8,1.4-6.8,3.6-9c-0.4-0.9-1.6-4.7,0.3-9.2c0,0,2.9-0.6,9.6,4.8  c2.8-0.4,5.8-0.4,8.8-0.1c3,0.4,6,1.2,8.8,2.3c6.7-3.7,9.6-2.4,9.6-2.4c1.9,5.1,0.7,8.5,0.3,9.3c2.2,2.7,3.6,6,3.6,9.9  c0,13.5-8.2,15.4-16,15.3c1.3,1.2,2.4,3.5,2.4,6.8c0,4.7,0,8.5,0,9.6c0,0.9,0.6,2.1,2.4,2c13.9-2.9,24-14.8,24-30.3  C85.6,50.9,69.9,33.2,50.5,30.8z"/></svg>