<?xml version="1.0" ?><svg id="Layer_1" style="enable-background:new 0 0 128 128;" version="1.1" viewBox="0 0 128 128" xml:space="preserve" xmlns="http://www.w3.org/2000/svg" xmlns:xlink="http://www.w3.org/1999/xlink"><style type="text/css">
	.st0{opacity:0.2;fill-rule:evenodd;clip-rule:evenodd;}
	.st1{fill-rule:evenodd;clip-rule:evenodd;fill:#EC6846;}
	.st2{fill-rule:evenodd;clip-rule:evenodd;fill:#FBA079;}
	.st3{fill-rule:evenodd;clip-rule:evenodd;fill:url(#SVGID_1_);}
	.st4{fill-rule:evenodd;clip-rule:evenodd;fill:#FFFFFF;}
</style><g><g><path class="st0" d="M34,79.7l93,4.4c1.2,0.1,1.4,1,0.4,2.1l-27,32.8c-0.9,1.1-2.6,2.1-3.8,1.9L5.5,109.7    c-1.1-0.1-1.4-1.1-0.4-2.1l25.2-25.9C31.2,80.6,32.8,79.7,34,79.7z"/><polygon class="st1" points="1.6,10 3.6,8 4,7.6 4.5,7.4 4.9,7.1 5.4,7 5.9,6.8 6.4,6.8 7,6.8 7.5,6.8 97.6,18.1 98.1,18.2     98.7,18.4 99.2,18.6 99.7,18.8 100.2,19.1 100.6,19.5 101.1,19.9 101.4,20.3 101.8,20.7 102.1,21.2 102.4,21.7 102.6,22.2     102.8,22.7 102.9,23.3 103,23.8 103.1,24.4 103.1,114.3 103,114.8 102.9,115.4 102.8,115.9 102.6,116.4 102.4,116.9 102.1,117.3     101.8,117.7 99.8,119.7 100.1,119.3 100.4,118.9 100.6,118.4 100.8,117.9 100.9,117.4 101,116.9 101,116.3 101,26.4 101,25.9     100.9,25.3 100.8,24.7 100.6,24.2 100.4,23.7 100.1,23.2 99.8,22.7 99.4,22.3 99,21.9 98.6,21.5 98.2,21.2 97.7,20.9 97.2,20.6     96.6,20.4 96.1,20.3 95.5,20.2 5.5,8.8 4.9,8.8 4.4,8.8 3.9,8.9 3.4,9 2.9,9.2 2.4,9.4 2,9.7   "/><polygon class="st2" points="1.6,10 2.6,9 3,8.7 3.4,8.4 3.9,8.2 4.4,8 4.9,7.9 5.4,7.8 5.9,7.8 6.5,7.8 96.6,19.2 97.1,19.3     97.7,19.4 98.2,19.6 98.7,19.9 99.2,20.2 99.6,20.5 100,20.9 100.4,21.3 100.8,21.7 101.1,22.2 101.4,22.7 101.6,23.2 101.8,23.7     101.9,24.3 102,24.8 102,25.4 102,115.3 102,115.9 101.9,116.4 101.8,116.9 101.6,117.4 101.4,117.9 101.1,118.3 100.8,118.7     99.8,119.7 100.1,119.3 100.4,118.9 100.6,118.4 100.8,117.9 100.9,117.4 101,116.9 101,116.3 101,26.4 101,25.9 100.9,25.3     100.8,24.7 100.6,24.2 100.4,23.7 100.1,23.2 99.8,22.7 99.4,22.3 99,21.9 98.6,21.5 98.2,21.2 97.7,20.9 97.2,20.6 96.6,20.4     96.1,20.3 95.5,20.2 5.5,8.8 4.9,8.8 4.4,8.8 3.9,8.9 3.4,9 2.9,9.2 2.4,9.4 2,9.7   "/><linearGradient gradientUnits="userSpaceOnUse" id="SVGID_1_" x1="57.8531" x2="43.1738" y1="12.7873" y2="117.236"><stop offset="0" style="stop-color:#F05656"/><stop offset="0.23" style="stop-color:#F05654"/><stop offset="0.46" style="stop-color:#EE2D29"/><stop offset="1" style="stop-color:#ED1C24"/></linearGradient><path class="st3" d="M5.5,8.8l90.1,11.3c3,0.4,5.5,3.2,5.5,6.3v89.9c0,3.1-2.5,5.3-5.5,4.9L5.5,109.9c-3-0.4-5.5-3.2-5.5-6.3V13.7    C0,10.7,2.5,8.5,5.5,8.8z"/></g><path class="st4" d="M48.9,30.1c0.6,0.5,1.3,1.1,2.1,2c0.8,0.9,1.5,1.9,2.2,3.2c0.7,1.2,1.3,2.5,1.9,4.1c0.4,1.5,0.7,3.3,0.7,5.2   c-0.1,3.6-0.9,6.4-2.4,8.3c-0.7,1-1.5,1.8-2.4,2.6c-0.9,0.8-1.9,1.5-3,2.3c-0.6,0.5-1.2,1.2-1.7,1.9c-0.6,0.7-0.9,1.7-0.9,2.7   c0,1.1,0.3,2,0.9,2.7c0.5,0.7,1,1.4,1.5,1.9l3.4,3.2c2.1,2,4,4.1,5.6,6.4c1.5,2.3,2.3,5.2,2.4,8.6c0,4.9-2.2,8.9-6.5,12.1   c-4.5,3.3-10.9,4.5-19.3,3.6c-7-1-12.3-3.1-15.8-6.5c-3.5-3.2-5.3-6.7-5.3-10.5c0-1.9,0.6-3.9,1.7-6c1.1-2.1,3.1-3.9,6-5.3   c3.3-1.5,6.7-2.3,10.3-2.4c3.6-0.1,6.5,0,8.9,0.2c-0.7-1-1.4-2.1-1.9-3.3c-0.7-1.1-1-2.4-1-3.9c0-0.9,0.1-1.6,0.4-2.2   c0.2-0.6,0.4-1.1,0.6-1.6c-1.1,0-2.2-0.1-3.2-0.2c-5.4-0.7-9.4-2.9-12.3-6.6c-2.9-3.4-4.4-7.2-4.4-11.3c0-4.9,2.1-9.2,6.3-12.7   c2.9-2,5.8-3.2,8.9-3.5c3.1-0.2,5.9-0.2,8.6,0.1l20.1,2.5l-6.2,2.8L48.9,30.1L48.9,30.1z M52.8,88.5c0-2.6-0.8-4.9-2.5-7   c-1.8-2-4.5-4.6-8.3-7.7c-0.6-0.1-1.4-0.3-2.3-0.4c-0.5-0.1-1.8-0.2-3.9-0.3c-2.1,0-4.2,0.2-6.4,0.6c-0.5,0.1-1.2,0.3-2.2,0.6   c-0.9,0.3-1.9,0.8-2.8,1.5c-0.9,0.7-1.7,1.6-2.4,2.7c-0.7,1.2-1.1,2.7-1.1,4.5c0,3.5,1.6,6.6,4.8,9.3c3,2.7,7.2,4.4,12.5,5.1   c4.7,0.5,8.4-0.1,10.9-1.8C51.6,94.1,52.8,91.7,52.8,88.5L52.8,88.5z M38.8,57.3c2.6,0.2,4.9-0.4,6.6-2c0.9-1.2,1.4-2.4,1.6-3.7   c0.1-1.3,0.2-2.4,0.2-3.4c0-4-1-8.1-3-12.4c-1-2.1-2.2-3.8-3.8-5.2c-1.6-1.3-3.4-2.2-5.5-2.5c-2.7-0.3-5,0.5-6.8,2.4   c-1.5,2-2.3,4.4-2.2,7.2c0,3.6,1.1,7.6,3.2,11.8c1,2,2.4,3.7,4,5.2C34.8,56.1,36.7,57,38.8,57.3L38.8,57.3z M88.6,42.5L78,41.2   V30.6L72.9,30v10.6l-10.6-1.3v5.1l10.6,1.3v10.6l5.1,0.6V46.3l10.6,1.3V42.5z"/></g></svg>